<svg id="free-icon-subscription-4907617" xmlns="http://www.w3.org/2000/svg" width="25.791" height="25.791" viewBox="0 0 25.791 25.791">
  <path id="패스_101" data-name="패스 101" d="M25.791,6.045A6.051,6.051,0,0,0,19.746,0H6.045a6.045,6.045,0,0,0,0,12.09h3.07c0,1.229,0,2.565,0,3.667l-.35-.493a2.267,2.267,0,1,0-3.693,2.63l5.452,7.583a.755.755,0,0,0,.614.314H21.963a.756.756,0,0,0,.756-.756V15.813a2.262,2.262,0,0,0-3.3-2.012,2.266,2.266,0,0,0-3.114-.886h0a2.28,2.28,0,0,0-.957-.825h4.4A6.051,6.051,0,0,0,25.791,6.045Zm-8.362,8.082a.756.756,0,0,1,.756.756v1.035a.756.756,0,1,0,1.511,0v-.074a.775.775,0,0,1,.737-.786.756.756,0,0,1,.774.755V24.28H11.525L6.3,17.015a.756.756,0,1,1,1.232-.875l1.721,2.422a.756.756,0,0,0,1.372-.438c0-8.287,0-7.8,0-8.226a.8.8,0,0,1,.8-.805.716.716,0,0,1,.715.715c0,4.272,0,2.03-.006,6.106a.756.756,0,1,0,1.511,0c0-2.475,0-1.628,0-1.81a.756.756,0,0,1,1.51.047v1.767a.756.756,0,1,0,1.511,0V14.883A.756.756,0,0,1,17.429,14.127Zm-3.773-3.549c0-.408,0-.57,0-.77A2.251,2.251,0,0,0,9.792,8.261,2.3,2.3,0,0,0,9.114,9.9c0,.211,0,.439,0,.679H6.045a4.534,4.534,0,0,1,0-9.067h13.7a4.534,4.534,0,0,1,0,9.067Z" fill="#1d1d1d"/>
  <path id="패스_102" data-name="패스 102" d="M95.922,62.358l-3.778-2.267A.756.756,0,0,0,91,60.739v4.534a.756.756,0,0,0,1.144.648l3.778-2.267A.756.756,0,0,0,95.922,62.358Zm-3.411,1.58V62.074l1.554.932Z" transform="translate(-86.416 -56.961)" fill="#1d1d1d"/>
  <path id="패스_103" data-name="패스 103" d="M250.067,106.756a.756.756,0,0,0-.756-.756h-7.556a.756.756,0,0,0,0,1.511h7.556A.756.756,0,0,0,250.067,106.756Z" transform="translate(-228.86 -100.66)" fill="#1d1d1d"/>
</svg>
