<svg xmlns="http://www.w3.org/2000/svg" width="23.147" height="23.148" viewBox="0 0 23.147 23.148">
  <g id="free-icon-contract-684831" transform="translate(-0.018)">
    <g id="그룹_2495" data-name="그룹 2495" transform="translate(0.018)">
      <g id="그룹_2494" data-name="그룹 2494" transform="translate(0)">
        <path id="패스_104" data-name="패스 104" d="M22.568,7.285a2.037,2.037,0,0,0-2.877,0L17.65,9.327V3.953a2.021,2.021,0,0,0-.6-1.439L15.136.6A2.021,2.021,0,0,0,13.7,0H2.053A2.037,2.037,0,0,0,.018,2.035V21.114a2.037,2.037,0,0,0,2.035,2.035H15.616a2.037,2.037,0,0,0,2.035-2.035v-6.03l4.918-4.922A2.033,2.033,0,0,0,22.568,7.285ZM13.581,1.356a.74.74,0,0,1,.6.2L16.1,3.473a.74.74,0,0,1,.2.6H13.581Zm2.713,19.757a.679.679,0,0,1-.678.678H2.053a.679.679,0,0,1-.678-.678V2.035a.679.679,0,0,1,.678-.678H12.225V4.747a.678.678,0,0,0,.678.678h3.391v5.259l-2,2-.959.959a.678.678,0,0,0-.164.265l-.959,2.877a.678.678,0,0,0,.858.858l2.877-.959a.678.678,0,0,0,.265-.164l.082-.082v4.673Zm-1.521-6.988.959.959-.366.366-1.439.48.48-1.439Zm1.918,0-.959-.959L18.992,9.9l.959.959ZM21.609,9.2l-.7.7-.959-.959.7-.7a.678.678,0,1,1,.959.959Z" transform="translate(-0.018)" fill="#1d1d1d"/>
      </g>
    </g>
    <g id="그룹_2497" data-name="그룹 2497" transform="translate(2.731 6.782)">
      <g id="그룹_2496" data-name="그룹 2496">
        <path id="패스_105" data-name="패스 105" d="M70.191,150H60.7a.678.678,0,1,0,0,1.356h9.494a.678.678,0,0,0,0-1.356Z" transform="translate(-60.018 -150)" fill="#1d1d1d"/>
      </g>
    </g>
    <g id="그룹_2499" data-name="그룹 2499" transform="translate(2.731 9.494)">
      <g id="그룹_2498" data-name="그룹 2498">
        <path id="패스_106" data-name="패스 106" d="M67.478,210H60.7a.678.678,0,1,0,0,1.356h6.782a.678.678,0,1,0,0-1.356Z" transform="translate(-60.018 -210)" fill="#1d1d1d"/>
      </g>
    </g>
    <g id="그룹_2501" data-name="그룹 2501" transform="translate(2.731 12.207)">
      <g id="그룹_2500" data-name="그룹 2500">
        <path id="패스_107" data-name="패스 107" d="M67.478,270H60.7a.678.678,0,0,0,0,1.356h6.782a.678.678,0,0,0,0-1.356Z" transform="translate(-60.018 -270)" fill="#1d1d1d"/>
      </g>
    </g>
    <g id="그룹_2503" data-name="그룹 2503" transform="translate(2.731 14.92)">
      <g id="그룹_2502" data-name="그룹 2502">
        <path id="패스_108" data-name="패스 108" d="M67.478,330H60.7a.678.678,0,0,0,0,1.356h6.782a.678.678,0,0,0,0-1.356Z" transform="translate(-60.018 -330)" fill="#1d1d1d"/>
      </g>
    </g>
    <g id="그룹_2505" data-name="그룹 2505" transform="translate(8.156 19.079)">
      <g id="그룹_2504" data-name="그룹 2504">
        <path id="패스_109" data-name="패스 109" d="M184.765,422H180.7a.678.678,0,0,0,0,1.356h4.069a.678.678,0,0,0,0-1.356Z" transform="translate(-180.018 -422)" fill="#1d1d1d"/>
      </g>
    </g>
  </g>
</svg>
