<svg id="free-animated-icon-notes-15747283" xmlns="http://www.w3.org/2000/svg" width="40.395" height="41.2" viewBox="0 0 40.395 41.2">
  <g id="그룹_51" data-name="그룹 51" transform="translate(0)">
    <path id="패스_84" data-name="패스 84" d="M36.463,19.045a.885.885,0,0,0,.885-.885V4.506a.885.885,0,0,0-.885-.885H32.722V2.7a2.7,2.7,0,1,0-5.391,0v.925H23.87V2.7a2.7,2.7,0,0,0-5.391,0v.925h-3.46V2.7a2.7,2.7,0,1,0-5.391,0v.925H5.885A.885.885,0,0,0,5,4.506V40.315a.885.885,0,0,0,.885.885H36.463a.885.885,0,0,0,.885-.885V24.962a.885.885,0,0,0-1.77,0V39.43H6.77V5.391H9.627v.925a2.7,2.7,0,0,0,2.7,2.7.885.885,0,0,0,0-1.77.926.926,0,0,1-.925-.925V5.391h7.081v.925a2.7,2.7,0,0,0,2.7,2.7.885.885,0,0,0,0-1.77.926.926,0,0,1-.925-.925V5.391H27.33v.925a2.7,2.7,0,0,0,2.7,2.7.885.885,0,1,0,0-1.77.926.926,0,0,1-.925-.925V5.391h6.478V18.16A.885.885,0,0,0,36.463,19.045ZM11.4,2.7a.925.925,0,0,1,1.851,0v.925H11.4Zm8.852,0a.925.925,0,0,1,1.851,0v.925H20.249Zm8.852,0a.925.925,0,0,1,1.851,0v.925H29.1Z" transform="translate(-5)" fill="#333"/>
    <path id="패스_85" data-name="패스 85" d="M87.692,150.886a.885.885,0,0,0-.885-.885H65.885a.885.885,0,1,0,0,1.77H86.807A.885.885,0,0,0,87.692,150.886Z" transform="translate(-60.172 -137.931)" fill="#333"/>
    <path id="패스_86" data-name="패스 86" d="M84.152,195.886a.885.885,0,0,0-.885-.885H65.885a.885.885,0,1,0,0,1.77H83.267A.885.885,0,0,0,84.152,195.886Z" transform="translate(-60.172 -179.309)" fill="#333"/>
    <path id="패스_87" data-name="패스 87" d="M80.531,240.885a.885.885,0,0,0-.885-.885H65.885a.885.885,0,0,0,0,1.77h13.76A.885.885,0,0,0,80.531,240.885Z" transform="translate(-60.172 -220.687)" fill="#333"/>
    <path id="패스_88" data-name="패스 88" d="M74.616,330.885a.885.885,0,0,0-.885-.885H65.885a.885.885,0,1,0,0,1.77h7.846A.885.885,0,0,0,74.616,330.885Z" transform="translate(-60.172 -303.445)" fill="#333"/>
    <path id="패스_89" data-name="패스 89" d="M65.885,375a.885.885,0,1,0,0,1.77h5.23a.885.885,0,1,0,0-1.77Z" transform="translate(-60.172 -344.823)" fill="#333"/>
  </g>
  <path id="패스_90" data-name="패스 90" d="M262.845,160.269l-3.129-3.13a.885.885,0,0,0-1.252,0l-14.977,14.977a.886.886,0,0,0-.217.357l-1.466,4.6a.885.885,0,0,0,1.112,1.112l4.6-1.466a.885.885,0,0,0,.357-.217l14.977-14.977A.885.885,0,0,0,262.845,160.269Zm-16.077,14.825-2.758.88.88-2.757,1.08-1.08,1.878,1.878Zm2.331-2.331-1.878-1.878,11.868-11.868,1.878,1.878Z" transform="translate(-222.708 -144.257)" fill="#0f84c7"/>
</svg>
