<svg xmlns="http://www.w3.org/2000/svg" width="41.438" height="41.431" viewBox="0 0 41.438 41.431">
  <g id="free-animated-icon-marketing-automation-16766930" transform="translate(0)">
    <g id="그룹_48" data-name="그룹 48" transform="translate(0 0)">
      <g id="그룹_45" data-name="그룹 45" transform="translate(0 0)">
        <path id="패스_73" data-name="패스 73" d="M86.993,81.8a14.753,14.753,0,0,0,1.617-3.9l.994-.361a.89.89,0,0,0,.587-.837V71.717a.89.89,0,0,0-.587-.837l-.994-.361a14.753,14.753,0,0,0-1.617-3.9l.449-.959a.89.89,0,0,0-.177-1.007l-3.527-3.526a.89.89,0,0,0-1.007-.177l-.959.449a14.76,14.76,0,0,0-3.9-1.617l-.361-.994a.89.89,0,0,0-.837-.587H71.687a.89.89,0,0,0-.837.587l-.361.994a14.758,14.758,0,0,0-3.9,1.617l-.959-.449a.89.89,0,0,0-1.007.177L61.1,64.654a.89.89,0,0,0-.177,1.007l.449.959a14.753,14.753,0,0,0-1.617,3.9l-.994.361a.89.89,0,0,0-.587.837V76.7a.89.89,0,0,0,.587.837l.994.361a14.753,14.753,0,0,0,1.617,3.9l-.449.959a.89.89,0,0,0,.177,1.007l3.527,3.526a.89.89,0,0,0,1.007.177l.959-.449a14.76,14.76,0,0,0,3.9,1.617l.361.994a.89.89,0,0,0,.837.587h4.987a.89.89,0,0,0,.837-.587l.361-.994a14.759,14.759,0,0,0,3.9-1.617l.959.449a.89.89,0,0,0,1.007-.177l3.527-3.526a.89.89,0,0,0,.177-1.007Zm-1.816.319.388.829-2.644,2.643-.829-.388a.891.891,0,0,0-.857.056,13,13,0,0,1-4.227,1.752.89.89,0,0,0-.646.566l-.312.859H72.311L72,87.579a.89.89,0,0,0-.646-.566,13,13,0,0,1-4.227-1.752.89.89,0,0,0-.857-.056l-.829.388L62.8,82.95l.388-.829a.89.89,0,0,0-.056-.857,13,13,0,0,1-1.752-4.227.89.89,0,0,0-.566-.646l-.859-.312V72.341l.859-.312a.89.89,0,0,0,.566-.646,13,13,0,0,1,1.752-4.227.89.89,0,0,0,.056-.857l-.388-.829,2.644-2.643.829.388a.89.89,0,0,0,.857-.056,13,13,0,0,1,4.227-1.752A.89.89,0,0,0,72,60.842l.312-.859H76.05l.312.859a.89.89,0,0,0,.646.566,13,13,0,0,1,4.227,1.752.891.891,0,0,0,.857.056l.829-.388,2.644,2.643-.388.829a.89.89,0,0,0,.056.857,13,13,0,0,1,1.752,4.227.89.89,0,0,0,.566.646l.859.312V76.08l-.859.312a.89.89,0,0,0-.566.646,13,13,0,0,1-1.752,4.227A.89.89,0,0,0,85.177,82.121Z" transform="translate(-53.461 -53.495)" fill="#333"/>
        <path id="패스_74" data-name="패스 74" d="M179,163.149h-.123v-4.975a.89.89,0,1,0-1.781,0v.253l-6.568,2.42H167.19a2,2,0,0,0-1.994,1.994v2.4a2,2,0,0,0,1.658,1.965v2.864a2.551,2.551,0,0,0,5.1,0v-2.312l5.145,1.9v.253a.89.89,0,1,0,1.781,0V164.93H179a.89.89,0,1,0,0-1.781Zm-12.027-.308a.214.214,0,0,1,.213-.213H169.8v2.824H167.19a.214.214,0,0,1-.213-.213Zm2.428,8a.771.771,0,0,1-.77-.77v-2.836h1.54v2.836A.771.771,0,0,1,169.4,170.838Zm2.177-5.117v-3.363l5.519-2.033v7.429Z" transform="translate(-151.826 -144.558)" fill="#333"/>
        <path id="패스_75" data-name="패스 75" d="M93.827,5.863a18.262,18.262,0,0,1,21.921-.74.89.89,0,0,0,.655,1.639l1.79-.457a.89.89,0,0,0,.642-1.084l-.46-1.791a.89.89,0,0,0-1.749.135A20.156,20.156,0,0,0,105.4.045h-.138A20.046,20.046,0,0,0,92.71,4.477a.89.89,0,1,0,1.118,1.386Z" transform="translate(-84.902 -0.045)" fill="#333"/>
        <path id="패스_76" data-name="패스 76" d="M117.413,429.529a18.262,18.262,0,0,1-21.921.74.89.89,0,0,0-.655-1.639l-1.79.457a.89.89,0,0,0-.642,1.084l.46,1.791a.89.89,0,0,0,1.749-.135,20.156,20.156,0,0,0,11.229,3.521h.138a20.046,20.046,0,0,0,12.55-4.432.89.89,0,0,0-1.118-1.386Z" transform="translate(-84.901 -393.917)" fill="#333"/>
        <path id="패스_77" data-name="패스 77" d="M430.951,92.737a.89.89,0,0,0-1.386,1.118,18.253,18.253,0,0,1,.74,21.917.89.89,0,0,0-1.64.655l.457,1.789a.89.89,0,0,0,1.084.642L432,118.4a.89.89,0,0,0-.135-1.749,20.033,20.033,0,0,0-.911-23.913Z" transform="translate(-393.946 -84.931)" fill="#333"/>
        <path id="패스_78" data-name="패스 78" d="M1.782,105.879a18.358,18.358,0,0,1,3.3-10.361.89.89,0,0,0,1.64-.655l-.457-1.789a.89.89,0,0,0-1.084-.642l-1.791.46a.89.89,0,0,0,.135,1.748,20.033,20.033,0,0,0,.911,23.913.89.89,0,0,0,1.386-1.118A18.25,18.25,0,0,1,1.782,105.879Z" transform="translate(-0.001 -84.929)" fill="#333"/>
      </g>
      <g id="그룹_46" data-name="그룹 46" transform="translate(9.501 9.5)">
        <path id="패스_79" data-name="패스 79" d="M118.289,129.528a.89.89,0,0,1-.89-.89,11.229,11.229,0,0,1,11.217-11.216.89.89,0,1,1,0,1.781,9.447,9.447,0,0,0-9.437,9.435A.89.89,0,0,1,118.289,129.528Z" transform="translate(-117.399 -117.422)" fill="#0f84c7"/>
      </g>
      <g id="그룹_47" data-name="그룹 47" transform="translate(19.829 19.825)">
        <path id="패스_80" data-name="패스 80" d="M245.89,257.1a.89.89,0,1,1,0-1.781,9.447,9.447,0,0,0,9.437-9.435.89.89,0,1,1,1.781,0A11.229,11.229,0,0,1,245.89,257.1Z" transform="translate(-245 -244.999)" fill="#0f84c7"/>
      </g>
    </g>
  </g>
</svg>
