<svg id="free-animated-icon-money-bag-11259489" xmlns="http://www.w3.org/2000/svg" width="39.88" height="41.2" viewBox="0 0 39.88 41.2">
  <g id="그룹_30" data-name="그룹 30" transform="translate(11.82)">
    <path id="패스_49" data-name="패스 49" d="M166.077,6.742l5.207-5.207A.9.9,0,0,0,170.648,0H157.514a.9.9,0,0,0-.636,1.535l5.207,5.207a11.425,11.425,0,0,0-9.411,11.231v15.1a.9.9,0,0,0,1.8,0v-15.1a9.608,9.608,0,0,1,19.216,0v9.419a.9.9,0,1,0,1.8,0V17.973A11.425,11.425,0,0,0,166.077,6.742Zm2.4-4.944-4.4,4.4-4.4-4.4Z" transform="translate(-152.675 0)" fill="#333"/>
    <path id="패스_50" data-name="패스 50" d="M258.814,153.774c0-1-.516-2.377-2.973-3.215-.8-.273-1.755-.757-1.755-1.513a1.468,1.468,0,0,1,2.5-1.035.9.9,0,0,0,1.272-1.272,3.247,3.247,0,0,0-1.408-.83V145.5a.9.9,0,1,0-1.8,0v.41a3.268,3.268,0,0,0-2.364,3.136c0,1,.516,2.377,2.973,3.215.8.273,1.755.757,1.755,1.513a1.467,1.467,0,0,1-1.465,1.465,3.929,3.929,0,0,1-1.875-.548.9.9,0,0,0-.981,1.507,5.724,5.724,0,0,0,1.957.755v.367a.9.9,0,0,0,1.8,0v-.41A3.268,3.268,0,0,0,258.814,153.774Z" transform="translate(-244.144 -132.78)" fill="#0f84c7"/>
  </g>
  <path id="패스_51" data-name="패스 51" d="M46.929,306.372a3.542,3.542,0,0,0-4.986,0l-4.536,4.537a3.532,3.532,0,0,0-3.478-2.942H26.047a6.181,6.181,0,0,0-6.087,5.254H8.974a.9.9,0,0,0-.9.9v6.567a.9.9,0,0,0,.9.9H34.7a4.807,4.807,0,0,0,3.421-1.418l8.809-8.809A3.542,3.542,0,0,0,46.929,306.372ZM9.873,315.019h4.768v4.768H9.873Zm35.784-4.932L36.848,318.9a3.021,3.021,0,0,1-2.15.891H16.44v-4.769h4.354a.9.9,0,0,0,.9-.9,4.375,4.375,0,0,1,4.353-4.353h7.882a1.728,1.728,0,1,1,0,3.455H28.675a.9.9,0,1,0,0,1.8h5.254a4.584,4.584,0,0,0,3.263-1.352l6.023-6.023a1.727,1.727,0,0,1,2.443,2.443Z" transform="translate(-8.075 -280.386)" fill="#333"/>
</svg>
