<svg id="free-animated-icon-strategic-consulting-15401360" xmlns="http://www.w3.org/2000/svg" width="42.809" height="40.395" viewBox="0 0 42.809 40.395">
  <g id="그룹_31" data-name="그룹 31" transform="translate(0 0)">
    <path id="패스_52" data-name="패스 52" d="M12.857,303.716a5.042,5.042,0,1,0-8.111,0A8.911,8.911,0,0,0,.052,309.8a2.274,2.274,0,0,0,2.218,2.76h13.06a2.274,2.274,0,0,0,2.218-2.76A8.906,8.906,0,0,0,12.857,303.716ZM8.8,297.522a3.2,3.2,0,1,1-3.2,3.2A3.206,3.206,0,0,1,8.8,297.522Zm6.863,13.042a.421.421,0,0,1-.333.159H2.271a.421.421,0,0,1-.333-.159.438.438,0,0,1-.088-.374,7.084,7.084,0,0,1,4.385-5.127,5.027,5.027,0,0,0,5.131,0,7.08,7.08,0,0,1,4.385,5.127A.438.438,0,0,1,15.664,310.564Z" transform="translate(0 -272.168)" fill="#333"/>
    <path id="패스_53" data-name="패스 53" d="M67.945,14.439H49.881A2.762,2.762,0,0,0,47.122,17.2V30.884a2.762,2.762,0,0,0,2.759,2.759h6.054a.268.268,0,0,1,.231.134l.8,1.394a2.107,2.107,0,0,0,3.649,0l.8-1.394a.268.268,0,0,1,.231-.134h6.289A2.762,2.762,0,0,0,70.7,30.884V17.2A2.762,2.762,0,0,0,67.945,14.439Zm.919,16.445a.92.92,0,0,1-.919.919H61.656a2.112,2.112,0,0,0-1.824,1.053l-.8,1.394a.267.267,0,0,1-.463,0l-.8-1.394A2.112,2.112,0,0,0,55.935,31.8H49.881a.921.921,0,0,1-.919-.919V17.2a.92.92,0,0,1,.919-.919H67.945a.921.921,0,0,1,.919.919Z" transform="translate(-43.182 -14.439)" fill="#333"/>
    <path id="패스_54" data-name="패스 54" d="M111.573,74.7H99a.92.92,0,1,0,0,1.839h12.568a.92.92,0,0,0,0-1.839Z" transform="translate(-89.884 -69.658)" fill="#333"/>
    <path id="패스_55" data-name="패스 55" d="M111.573,121.534H99a.92.92,0,0,0,0,1.839h12.568a.92.92,0,0,0,0-1.839Z" transform="translate(-89.884 -112.58)" fill="#333"/>
    <path id="패스_56" data-name="패스 56" d="M141.2,168.371h-6.619a.92.92,0,0,0,0,1.839H141.2a.92.92,0,1,0,0-1.839Z" transform="translate(-122.486 -155.501)" fill="#333"/>
  </g>
  <g id="그룹_32" data-name="그룹 32" transform="translate(19.17 11.615)">
    <path id="패스_57" data-name="패스 57" d="M239.595,371.126h-2.722a1.758,1.758,0,0,0-1.756,1.756v7.06a1.758,1.758,0,0,0,1.756,1.756h2.722a1.758,1.758,0,0,0,1.756-1.756v-7.06A1.758,1.758,0,0,0,239.595,371.126Zm-.084,8.732h-2.555v-6.893h2.555Z" transform="translate(-234.628 -352.918)" fill="#0f84c7"/>
    <path id="패스_58" data-name="패스 58" d="M340.693,333.693H337.87a1.758,1.758,0,0,0-1.756,1.756v10.19a1.758,1.758,0,0,0,1.756,1.756h2.823a1.758,1.758,0,0,0,1.756-1.756v-10.19A1.758,1.758,0,0,0,340.693,333.693Zm-.084,11.862h-2.655V335.532h2.655Z" transform="translate(-327.181 -318.615)" fill="#0f84c7"/>
    <path id="패스_59" data-name="패스 59" d="M440.82,287.6H438a1.758,1.758,0,0,0-1.756,1.756V303.4A1.758,1.758,0,0,0,438,305.152h2.823a1.758,1.758,0,0,0,1.756-1.756V289.352A1.758,1.758,0,0,0,440.82,287.6Zm-.084,15.716H438.08V289.435h2.656Z" transform="translate(-418.936 -276.372)" fill="#0f84c7"/>
    <path id="패스_60" data-name="패스 60" d="M250.889,156.711l.2.939a.92.92,0,0,0,1.8-.388l-.686-3.181a.92.92,0,0,0-1.093-.705l-3.181.686a.92.92,0,1,0,.388,1.8l1.084-.234a29.788,29.788,0,0,1-5.868,5.628,26.777,26.777,0,0,1-6.489,3.44,21.414,21.414,0,0,1-6.838,1.394.92.92,0,0,0-.032,1.839h.064a23.118,23.118,0,0,0,7.348-1.474,28.6,28.6,0,0,0,6.972-3.672A31.625,31.625,0,0,0,250.889,156.711Z" transform="translate(-229.271 -153.355)" fill="#0f84c7"/>
  </g>
</svg>
