<svg id="free-animated-icon-conversation-16059798" xmlns="http://www.w3.org/2000/svg" width="40.395" height="40.395" viewBox="0 0 40.395 40.395">
  <g id="그룹_39" data-name="그룹 39">
    <g id="그룹_37" data-name="그룹 37">
      <path id="패스_65" data-name="패스 65" d="M11.99,291.521a4.669,4.669,0,1,0-7.168,0A5.609,5.609,0,0,0,0,297.068V301a.868.868,0,0,0,.868.868H15.945a.868.868,0,0,0,.868-.868v-3.928A5.609,5.609,0,0,0,11.99,291.521ZM8.406,285.6a2.933,2.933,0,1,1-2.933,2.933A2.936,2.936,0,0,1,8.406,285.6Zm6.671,14.528H1.736v-3.06A3.87,3.87,0,0,1,5.6,293.2H7.539v1.089a.868.868,0,1,0,1.736,0V293.2h1.937a3.87,3.87,0,0,1,3.866,3.866v3.06Z" transform="translate(0 -261.468)" fill="#0f84c7"/>
      <path id="패스_66" data-name="패스 66" d="M241,14.89a9.384,9.384,0,0,0,1.7-5.411,9.479,9.479,0,0,0-16.686-6.157L227.33,4.45a7.743,7.743,0,0,1,12.037,9.735.868.868,0,0,0-.15.753l.212.793-.8-.215a.868.868,0,0,0-.748.146,7.756,7.756,0,0,1-7.41,1.06l-.616,1.623a9.494,9.494,0,0,0,8.722-1.045l1.856.5a.868.868,0,0,0,1.063-1.063Z" transform="translate(-208.18)" fill="#0f84c7"/>
    </g>
    <g id="그룹_38" data-name="그룹 38" transform="translate(5.877 2.479)">
      <path id="패스_67" data-name="패스 67" d="M310.888,291.521a4.669,4.669,0,1,0-7.168,0,5.609,5.609,0,0,0-4.823,5.546V301a.868.868,0,0,0,.868.868h15.077a.868.868,0,0,0,.868-.868v-3.928A5.609,5.609,0,0,0,310.888,291.521ZM307.3,285.6a2.933,2.933,0,1,1-2.933,2.933A2.936,2.936,0,0,1,307.3,285.6Zm6.671,14.528H300.634v-3.06A3.87,3.87,0,0,1,304.5,293.2h1.937v1.089a.868.868,0,1,0,1.736,0V293.2h1.937a3.87,3.87,0,0,1,3.866,3.866Z" transform="translate(-281.193 -263.947)" fill="#333"/>
      <path id="패스_68" data-name="패스 68" d="M83.973,31.416a9.49,9.49,0,0,0-9.479,9.479,9.384,9.384,0,0,0,1.7,5.411L75.7,48.149a.868.868,0,0,0,1.063,1.063l1.856-.5a9.392,9.392,0,0,0,5.359,1.659,9.479,9.479,0,0,0,0-18.958Zm0,17.222a7.675,7.675,0,0,1-4.662-1.561.868.868,0,0,0-.748-.146l-.8.215.212-.793a.868.868,0,0,0-.15-.753A7.67,7.67,0,0,1,76.23,40.9a7.743,7.743,0,1,1,7.743,7.743Z" transform="translate(-74.494 -31.416)" fill="#333"/>
    </g>
  </g>
  <g id="그룹_40" data-name="그룹 40" transform="translate(10.859 11.09)">
    <ellipse id="타원_10" data-name="타원 10" cx="0.868" cy="0.868" rx="0.868" ry="0.868" transform="translate(7.258)" fill="#0f84c7"/>
    <ellipse id="타원_11" data-name="타원 11" cx="0.868" cy="0.868" rx="0.868" ry="0.868" transform="translate(3.629)" fill="#0f84c7"/>
    <ellipse id="타원_12" data-name="타원 12" cx="0.868" cy="0.868" rx="0.868" ry="0.868" fill="#0f84c7"/>
  </g>
</svg>
