<svg id="free-animated-icon-meeting-10690308" xmlns="http://www.w3.org/2000/svg" width="39.589" height="39.589" viewBox="0 0 39.589 39.589">
  <g id="그룹_49" data-name="그룹 49" transform="translate(16.668 27.669)">
    <path id="패스_81" data-name="패스 81" d="M221.049,359.544H216.41a.851.851,0,0,1,0-1.7h4.639a.851.851,0,0,1,0,1.7Z" transform="translate(-215.564 -357.843)"/>
  </g>
  <g id="그룹_50" data-name="그룹 50" transform="translate(0)">
    <path id="패스_82" data-name="패스 82" d="M9.5,29.37H.853A.851.851,0,0,1,0,28.52V.851A.851.851,0,0,1,.853,0H30.88a.851.851,0,0,1,.851.851V4.7a.851.851,0,0,1-1.7,0v-3H1.7V27.669H9.5A.851.851,0,0,1,9.5,29.37Z" transform="translate(-0.002 0)" fill="#333"/>
  </g>
  <path id="패스_83" data-name="패스 83" d="M110.49,58.713a4.779,4.779,0,1,0-7.286-.023H92.629a3.209,3.209,0,0,0,0,6.417h8.582v5.608A4.791,4.791,0,0,0,98.685,78.8a5.593,5.593,0,0,0-2.912,2.313A5.593,5.593,0,0,0,92.861,78.8a4.779,4.779,0,1,0-6.753,0,5.575,5.575,0,0,0-3.763,5.265v1.572a.851.851,0,0,0,.851.851c6.271,0,18.884,0,25.154,0h6.367a.851.851,0,0,0,.851-.851V64.257A5.573,5.573,0,0,0,110.49,58.713Zm-6.713-3.1a3.08,3.08,0,1,1,3.08,3.08A3.083,3.083,0,0,1,103.777,55.61Zm-1.715,16.729a3.08,3.08,0,1,1-3.08,3.08A3.083,3.083,0,0,1,102.062,72.339Zm-12.577,0a3.08,3.08,0,1,1-3.08,3.08A3.083,3.083,0,0,1,89.485,72.339ZM84.047,84.065A3.87,3.87,0,0,1,87.913,80.2h3.144a3.87,3.87,0,0,1,3.866,3.866v.722H84.047Zm12.577,0A3.87,3.87,0,0,1,100.49,80.2h3.144a3.87,3.87,0,0,1,3.866,3.866v.722H96.624Zm17.243.722H109.2v-.722a5.575,5.575,0,0,0-3.763-5.265,4.791,4.791,0,0,0-2.526-8.085V64.257a.851.851,0,0,0-.851-.851H92.629a1.508,1.508,0,0,1,0-3.015H110a3.87,3.87,0,0,1,3.866,3.866v20.53Z" transform="translate(-75.979 -46.899)" fill="#0f84c7"/>
</svg>
